<mxfile host="Electron" modified="2023-12-22T02:08:22.199Z" agent="Mozilla/5.0 (X11; Linux x86_64) AppleWebKit/537.36 (KHTML, like Gecko) draw.io/22.1.11 Chrome/114.0.5735.289 Electron/25.9.8 Safari/537.36" etag="E3sTNHgs79yrPZOwpyFu" version="22.1.11" type="device">
  <diagram name="페이지-1" id="-qK6H7nwtVnvxXhuDI7B">
    <mxGraphModel dx="3915" dy="1953" grid="1" gridSize="10" guides="1" tooltips="1" connect="1" arrows="1" fold="1" page="1" pageScale="1" pageWidth="827" pageHeight="1169" math="0" shadow="0">
      <root>
        <mxCell id="0" />
        <mxCell id="1" parent="0" />
        <mxCell id="ufIWaHsk33a_ImxQl0YV-21" value="통합 테스트" style="fillColor=none;strokeColor=#CC0066;dashed=1;verticalAlign=top;fontStyle=1;fontColor=#5A6C86;whiteSpace=wrap;html=1;fontSize=17;align=left;labelBorderColor=none;strokeWidth=3;" parent="1" vertex="1">
          <mxGeometry x="-2150" y="-740" width="560" height="460" as="geometry" />
        </mxCell>
        <mxCell id="ufIWaHsk33a_ImxQl0YV-8" value="" style="shadow=0;dashed=0;html=1;strokeColor=none;fillColor=#4495D1;labelPosition=center;verticalLabelPosition=bottom;verticalAlign=top;align=center;outlineConnect=0;shape=mxgraph.veeam.2d.file_system_browser;" parent="1" vertex="1">
          <mxGeometry x="-2130" y="-380" width="90" height="80" as="geometry" />
        </mxCell>
        <mxCell id="ufIWaHsk33a_ImxQl0YV-9" value="" style="image;aspect=fixed;perimeter=ellipsePerimeter;html=1;align=center;shadow=0;dashed=0;spacingTop=3;image=img/lib/active_directory/database.svg;" parent="1" vertex="1">
          <mxGeometry x="-2145" y="-530" width="120" height="90" as="geometry" />
        </mxCell>
        <object placeholders="1" c4Name="System name" c4Type="Software System" c4Description="Description of software system." label="&lt;font style=&quot;font-size: 16px&quot;&gt;&lt;b&gt;%c4Name%&lt;/b&gt;&lt;/font&gt;&lt;div&gt;[%c4Type%]&lt;/div&gt;&lt;br&gt;&lt;div&gt;&lt;font style=&quot;font-size: 11px&quot;&gt;&lt;font color=&quot;#cccccc&quot;&gt;%c4Description%&lt;/font&gt;&lt;/div&gt;" id="ufIWaHsk33a_ImxQl0YV-10">
          <mxCell style="rounded=1;whiteSpace=wrap;html=1;labelBackgroundColor=none;fillColor=#1061B0;fontColor=#ffffff;align=center;arcSize=10;strokeColor=#0D5091;metaEdit=1;resizable=0;points=[[0.25,0,0],[0.5,0,0],[0.75,0,0],[1,0.25,0],[1,0.5,0],[1,0.75,0],[0.75,1,0],[0.5,1,0],[0.25,1,0],[0,0.75,0],[0,0.5,0],[0,0.25,0]];" parent="1" vertex="1">
            <mxGeometry x="-1890" y="-490" width="240" height="120" as="geometry" />
          </mxCell>
        </object>
        <object placeholders="1" c4Name="External system name" c4Type="Software System" c4Description="Description of external software system." label="&lt;font style=&quot;font-size: 16px&quot;&gt;&lt;b&gt;%c4Name%&lt;/b&gt;&lt;/font&gt;&lt;div&gt;[%c4Type%]&lt;/div&gt;&lt;br&gt;&lt;div&gt;&lt;font style=&quot;font-size: 11px&quot;&gt;&lt;font color=&quot;#cccccc&quot;&gt;%c4Description%&lt;/font&gt;&lt;/div&gt;" id="ufIWaHsk33a_ImxQl0YV-11">
          <mxCell style="rounded=1;whiteSpace=wrap;html=1;labelBackgroundColor=none;fillColor=#8C8496;fontColor=#ffffff;align=center;arcSize=10;strokeColor=#736782;metaEdit=1;resizable=0;points=[[0.25,0,0],[0.5,0,0],[0.75,0,0],[1,0.25,0],[1,0.5,0],[1,0.75,0],[0.75,1,0],[0.5,1,0],[0.25,1,0],[0,0.75,0],[0,0.5,0],[0,0.25,0]];" parent="1" vertex="1">
            <mxGeometry x="-1890" y="-700" width="240" height="120" as="geometry" />
          </mxCell>
        </object>
        <mxCell id="ufIWaHsk33a_ImxQl0YV-12" value="&lt;font style=&quot;font-size: 13px;&quot;&gt;비공개 의존성&lt;/font&gt;" style="endArrow=open;endSize=12;dashed=1;html=1;rounded=0;exitX=0.5;exitY=0;exitDx=0;exitDy=0;exitPerimeter=0;entryX=0.5;entryY=1;entryDx=0;entryDy=0;entryPerimeter=0;strokeWidth=4;" parent="1" source="ufIWaHsk33a_ImxQl0YV-10" target="ufIWaHsk33a_ImxQl0YV-11" edge="1">
          <mxGeometry width="160" relative="1" as="geometry">
            <mxPoint x="-1730" y="-220" as="sourcePoint" />
            <mxPoint x="-1570" y="-220" as="targetPoint" />
          </mxGeometry>
        </mxCell>
        <mxCell id="ufIWaHsk33a_ImxQl0YV-13" value="&lt;span style=&quot;font-size: 13px;&quot;&gt;공유 의존성&lt;/span&gt;" style="endArrow=open;endSize=12;dashed=1;html=1;rounded=0;exitX=0;exitY=0.5;exitDx=0;exitDy=0;exitPerimeter=0;entryX=1;entryY=0.5;entryDx=0;entryDy=0;strokeWidth=4;" parent="1" source="ufIWaHsk33a_ImxQl0YV-10" target="ufIWaHsk33a_ImxQl0YV-9" edge="1">
          <mxGeometry width="160" relative="1" as="geometry">
            <mxPoint x="-1760" y="-485" as="sourcePoint" />
            <mxPoint x="-1760" y="-570" as="targetPoint" />
          </mxGeometry>
        </mxCell>
        <mxCell id="ufIWaHsk33a_ImxQl0YV-14" value="&lt;span style=&quot;font-size: 13px;&quot;&gt;공유 의존성&lt;/span&gt;" style="endArrow=open;endSize=12;dashed=1;html=1;rounded=0;exitX=0;exitY=0.75;exitDx=0;exitDy=0;exitPerimeter=0;strokeWidth=4;" parent="1" source="ufIWaHsk33a_ImxQl0YV-10" target="ufIWaHsk33a_ImxQl0YV-8" edge="1">
          <mxGeometry width="160" relative="1" as="geometry">
            <mxPoint x="-1880" y="-425" as="sourcePoint" />
            <mxPoint x="-1998" y="-425" as="targetPoint" />
          </mxGeometry>
        </mxCell>
        <mxCell id="ufIWaHsk33a_ImxQl0YV-15" value="" style="image;aspect=fixed;perimeter=ellipsePerimeter;html=1;align=center;shadow=0;dashed=0;fontColor=#4277BB;labelBackgroundColor=default;fontSize=12;spacingTop=3;image=img/lib/ibm/devops/build_test.svg;" parent="1" vertex="1">
          <mxGeometry x="-1800" y="-250" width="60" height="60" as="geometry" />
        </mxCell>
        <mxCell id="ufIWaHsk33a_ImxQl0YV-16" value="&lt;span style=&quot;font-size: 13px;&quot;&gt;Test Run&lt;/span&gt;" style="endArrow=open;endSize=12;dashed=1;html=1;rounded=0;exitX=0.5;exitY=0;exitDx=0;exitDy=0;entryX=0.5;entryY=1;entryDx=0;entryDy=0;strokeWidth=4;entryPerimeter=0;" parent="1" source="ufIWaHsk33a_ImxQl0YV-15" target="ufIWaHsk33a_ImxQl0YV-10" edge="1">
          <mxGeometry width="160" relative="1" as="geometry">
            <mxPoint x="-1880" y="-420" as="sourcePoint" />
            <mxPoint x="-2000" y="-425" as="targetPoint" />
          </mxGeometry>
        </mxCell>
        <mxCell id="ufIWaHsk33a_ImxQl0YV-18" value="" style="verticalLabelPosition=bottom;html=1;verticalAlign=top;align=center;strokeColor=none;fillColor=#00BEF2;shape=mxgraph.azure.cloud_service;" parent="1" vertex="1">
          <mxGeometry x="-1550" y="-480" width="120" height="90" as="geometry" />
        </mxCell>
        <mxCell id="ufIWaHsk33a_ImxQl0YV-19" value="&lt;span style=&quot;font-size: 13px;&quot;&gt;Call&lt;/span&gt;" style="endArrow=open;endSize=12;dashed=1;html=1;rounded=0;exitX=1;exitY=0.5;exitDx=0;exitDy=0;entryX=0.017;entryY=0.578;entryDx=0;entryDy=0;strokeWidth=4;entryPerimeter=0;exitPerimeter=0;" parent="1" source="ufIWaHsk33a_ImxQl0YV-10" target="ufIWaHsk33a_ImxQl0YV-18" edge="1">
          <mxGeometry width="160" relative="1" as="geometry">
            <mxPoint x="-1760" y="-280" as="sourcePoint" />
            <mxPoint x="-1760" y="-360" as="targetPoint" />
          </mxGeometry>
        </mxCell>
        <mxCell id="ufIWaHsk33a_ImxQl0YV-20" value="단위 테스트" style="fillColor=none;strokeColor=#5A6C86;dashed=1;verticalAlign=top;fontStyle=1;fontColor=#5A6C86;whiteSpace=wrap;html=1;fontSize=17;strokeWidth=3;" parent="1" vertex="1">
          <mxGeometry x="-1910" y="-730" width="290" height="390" as="geometry" />
        </mxCell>
        <mxCell id="ufIWaHsk33a_ImxQl0YV-22" value="End-to-End Test" style="fillColor=none;strokeColor=#00CC00;dashed=1;verticalAlign=top;fontStyle=1;fontColor=#5A6C86;whiteSpace=wrap;html=1;fontSize=17;align=right;labelBorderColor=none;strokeWidth=3;" parent="1" vertex="1">
          <mxGeometry x="-2230" y="-760" width="820" height="490" as="geometry" />
        </mxCell>
        <mxCell id="VdaDC_mSfpd_CISlcYIt-1" value="" style="fillColor=none;strokeColor=#5A6C86;dashed=1;verticalAlign=top;fontStyle=0;fontColor=#5A6C86;whiteSpace=wrap;html=1;" vertex="1" parent="1">
          <mxGeometry x="-2270" y="-790" width="900" height="600" as="geometry" />
        </mxCell>
      </root>
    </mxGraphModel>
  </diagram>
</mxfile>
